<?xml version="1.0" encoding="UTF-8" standalone="no"?>
<!-- Created with Inkscape (http://www.inkscape.org/) -->

<svg
   version="1.1"
   id="svg1"
   width="2560"
   height="1600"
   viewBox="0 0 2560 1600"
   xml:space="preserve"
   xmlns="http://www.w3.org/2000/svg"
   xmlns:svg="http://www.w3.org/2000/svg"><defs
     id="defs1" /><g
     id="layer3"><g
       id="layer4"
       style="display:inline;stroke-width:1;stroke-dasharray:none"><path
         id="path220"
         style="display:inline;fill:none;stroke:#5F6368;stroke-width:3;stroke-linecap:round;stroke-linejoin:round;stroke-dasharray:none;stroke-dashoffset:0"
         d="M 1428.2008,881.54859 1466.5029,917.34683 1466.4163,937.14058 M 2155.6182,639.84351 H 2190.1721 M 2155.6182,662.66041 V 654.4601 M 2155.6182,642.9421 V 635.99374 M 2155.6182,627.10485 V 617.02661 M 2098.0282,662.66041 H 2136.338 M 2152.3631,662.66041 H 2190.1721 M 2098.0282,730.51643 H 2105.4147 V 764.56964 H 2098.0282 M 2098.0282,853.45853 H 2140.4695 M 2140.4695,833.55243 V 878.62285 M 2098.0282,833.55243 H 2102.597 M 2113.5743,833.55243 H 2190.1721 M 2098.0282,901.15806 H 2137.9656 M 2147.856,901.15806 H 2190.1721 M 2098.0282,878.62285 H 2190.1721 M 2098.0282,1002.8169 H 2190.1721 M 2098.0282,1230.1721 H 2108.3512 M 2132.6075,1230.1721 H 2190.1721 M 2098.0282,1248.5802 V 1263.4742 H 2190.1721 V 1206.8841 M 2190.1721,1185.4606 V 873.36463 M 2190.1721,852.33177 V 617.2144 L 2098.0282,616.71362 V 644.63224 M 2098.0282,658.77934 V 666.16589 M 2098.0282,680.68858 V 730.51643 M 2098.0282,764.56964 V 817.40219 M 2098.0282,830.48514 V 837.81641 M 2098.0282,850.65278 V 860.92187 M 2098.0282,874.55498 V 1007.6106 M 2098.0282,1029.4767 V 1215.0235 M 2098.0282,1223.036 V 1230.1721 M 1412.8857,394.29779 H 1436.9649 M 1258.4952,368.448 V 382.61227 M 1425.2794,356.76248 V 381.19584 M 1269.4725,345.96223 V 345.96223 306.12523 M 1293.7288,306.12523 V 345.96223 M 1293.7288,357.11659 V 394.29779 M 1317.4539,306.12523 V 345.96223 M 1317.4539,357.11659 V 394.29779 M 1340.6479,394.29779 V 357.11659 M 1340.6479,345.96223 V 306.12523 M 1363.8419,306.12523 V 345.96223 M 1363.8419,357.11659 V 394.29779 M 1387.567,306.12523 V 345.96223 M 1387.567,357.11659 V 394.29779 M 1412.8857,394.29779 V 357.11659 357.11659 M 1405.8216,357.11659 H 1372.8326 M 1363.8419,357.11659 H 1349.2332 M 1340.6479,357.11659 H 1327.1918 M 1309.1324,357.11659 H 1279.5645 M 1269.4725,357.11659 V 357.11659 394.29779 M 1246.6326,345.96223 H 1262.4615 M 1279.6133,345.96223 H 1308.6898 M 1327.2804,345.96223 H 1355.0778 M 1372.606,345.96223 H 1389.5146 M 1397.9247,345.96223 H 1436.9649 M 1412.8857,394.29779 H 1246.6326 V 306.12523 H 1436.9649 V 394.47484 M 1958.8106,672.17528 H 1939.0297 M 1973.3333,500.40689 H 1993.9906 M 2002.6503,508.32014 V 513.8088 M 1961.3146,684.56964 V 681.25196 H 1929.3503 M 1973.4365,585.6651 H 1979.7183 M 1986.1033,585.6651 H 2021.7721 M 1929.3503,577.52739 H 1936.1502 M 1942.1596,577.52739 H 1961.3146 M 1929.3503,598.83511 H 1936.2754 M 1942.5352,598.83511 H 1961.3146 M 1973.4365,598.83511 H 1979.4679 M 1985.7903,598.83511 H 2021.7721 M 1929.3503,640.84457 H 1961.3146 M 1973.4365,640.84457 H 2012.5653 M 2018.7179,640.84457 H 2021.7721 M 1929.3503,663.06476 H 1961.3146 M 1961.3146,663.06476 V 663.06476 M 1961.3146,656.02689 V 636.10839 M 1961.3146,626.06062 V 612.51604 M 1961.3146,603.13221 V 590.78274 M 1961.3146,582.23991 V 574.13972 M 1961.3146,564.53458 V 528.81407 M 1961.3146,518.85482 V 492.9165 M 1973.4365,513.8088 V 515.88917 M 1973.4365,530.00918 V 560.94925 M 1973.4365,571.92656 V 585.6651 M 1973.4365,594.98775 V 603.04368 M 1973.4365,612.42751 V 627.03441 M 1973.4365,635.79855 V 645.53991 M 1973.4365,655.30517 V 684.56964 M 1973.4365,684.56964 H 2021.7721 M 1976.4465,739.64033 V 684.56964 M 1961.3146,717.1205 V 684.56964 H 1929.3503 V 513.10058 H 1961.3146 M 1961.3146,492.9165 H 2002.6503 V 508.32014 H 1973.4365 V 513.8088 H 2021.7721 V 724.88263 M 1941.784,1055.8998 1928.3568,1042.4726 M 1942.0344,839.43662 H 1961.5649 M 1803.2883,764.51633 1791.9126,753.14065 M 1796.9646,740.56393 1794.2143,743.31419 1811.1229,760.22279 1813.8731,757.47253 M 1623.7872,913.42723 1625.7681,911.44635 1642.8337,928.51199 1640.8528,930.49286 M 1647.9499,921.62755 1635.3365,909.01409 M 1700.4069,1074.1784 H 1717.2404 V 1044.836 M 1700.4069,1111.2989 H 1670.8607 M 1685.6338,1074.1784 V 1068.1628 M 1670.8607,1068.1628 H 1700.4069 M 1670.8607,1046.7394 H 1700.4069 M 1670.8607,1003.1842 H 1700.4069 M 1656.334,981.76078 H 1645.2682 M 1638.9828,981.76078 H 1635.9729 V 958.56679 M 1656.334,1046.0439 H 1607.1362 M 1656.334,1089.4092 H 1607.1362 M 1656.334,1112.4261 H 1617.5274 M 1610.5165,1112.4261 H 1607.1362 M 1700.4069,1074.1784 H 1670.8607 M 1670.8607,1074.1784 V 1068.1628 M 1670.8607,1061.4348 V 1019.119 M 1670.8607,1008.2303 V 975.12128 M 1670.8607,965.20629 V 958.56679 M 1700.4069,958.56679 H 1668.9933 M 1658.2816,958.56679 H 1656.334 M 1700.4069,1074.1784 V 958.56679 M 1656.334,1133.5211 H 1700.4069 V 1089.0767 H 1670.8607 V 1094.6479 M 1670.8607,1105.3521 V 1117.9008 M 1670.8607,1128.6385 V 1133.5211 M 1725.3208,1054.9609 V 1071.5493 M 1806.4486,804.63115 1813.3537,797.72607 M 1619.4053,909.04537 1646.0759,935.71594 1654.7339,927.05799 M 1810.4577,771.2089 1819.0962,762.6956 1792.4257,736.02505 M 1706.3537,904.72615 1730.0783,928.45071 C 1768.647,907.14054 1796.5324,879.82098 1813.7344,846.49203 M 1684.3903,942.55016 H 1709.45 L 1726.7513,925.2489 M 1809.6213,842.37889 1824.6708,827.32935 V 798.06676 M 1789.1611,821.9187 1813.7344,846.49203 M 1818.8419,792.23788 1813.3537,797.72607 M 1806.4486,804.63115 1801.3146,809.76525 M 1794.241,816.8388 1690.9408,920.13906 M 1685.5407,925.53919 1676.46,934.61985 M 1743.975,833.05165 1738.0595,838.96715 C 1726.7295,836.45485 1719.635,842.99076 1722.7543,854.27231 L 1717.2457,859.78093 M 1780.2191,812.08139 1748.2942,780.1565 M 1751.6119,840.68859 1719.687,808.76369 M 1724.8826,867.41785 1692.9577,835.49296 M 1695.8373,896.46323 1663.9124,864.53834 M 1809.4523,782.8482 1807.3926,784.90959 M 1803.6302,788.71624 1785.4404,806.8802 M 1781.4028,810.88646 1778.8078,813.51837 M 1775.1145,817.21164 1756.5775,835.76729 M 1753.5233,838.86573 1751.6119,840.68859 M 1724.8826,867.41785 1722.7867,869.64123 M 1718.5926,873.83528 1700.8561,891.45642 M 1697.2265,895.08602 1694.5202,897.69168 M 1691.1562,901.0557 1672.6984,919.60205 M 1668.4491,923.85133 1667.0703,925.23018 M 1744.4757,1089.0767 V 1091.6332 M 1744.4757,1101.8137 V 1104.4587 M 1998.3125,852.60037 V 816.02504 M 1932.5815,847.44914 H 1961.3146 M 2021.9092,876.74492 H 1992.4883 V 880.39774 M 1992.4883,887.39135 V 896.02504 M 1976.4465,926.60407 H 1979.7219 M 1989.5484,926.60407 H 2021.9092 M 1976.4465,981.28326 H 2021.9092 M 1976.4465,938.21596 H 2021.9092 M 1976.4465,896.02504 H 2021.9092 M 1961.3146,874.61659 H 1928.7748 M 1961.3146,896.02504 H 1928.7748 M 1961.3146,916.93271 H 1928.7748 M 1961.3146,938.21596 H 1928.7748 M 1961.3146,959.37402 H 1928.7748 M 1961.3146,981.28326 H 1928.7748 M 1961.3146,1003.3177 H 1928.7748 M 1976.4465,1037.1831 H 1980.9613 V 1026.334 M 2007.8298,1026.334 H 1976.4465 M 1961.3146,1026.334 H 1928.1685 M 1931.4096,1100.4982 1939.7749,1108.8636 M 1936.7212,1095.1866 1945.0865,1103.552 M 1928.7748,1025.7277 1951.4783,1048.4312 M 1912.8068,1041.6957 1935.5103,1064.3992 M 1891.0798,1104.4587 V 1109.1507 M 1891.0798,1115.9672 V 1134.0267 M 1857.903,1104.4587 V 1114.0471 M 1857.903,1124.8139 V 1134.0267 M 1827.2301,1065.3862 H 1833.3917 M 1840.2082,1065.3862 H 1846.6354 M 1846.6354,1041.6957 V 1050.9001 M 1846.6354,1057.7167 V 1072.8547 M 1846.6354,1079.6713 V 1089.0767 M 1827.2301,1089.0767 V 1041.6957 M 1782.7856,1041.6957 V 1089.0767 M 1836.6197,1104.4587 V 1108.0883 M 1836.6197,1116.4984 V 1134.0267 M 1804.9452,1134.0267 V 1112.4301 M 1783.4116,1104.4587 V 1134.0267 M 1761.5024,1104.4587 V 1134.0267 M 1738.6638,1043.995 V 1089.0767 M 1733.4407,1044.836 V 1084.3193 H 1738.8419 M 1738.6638,1089.0767 H 1744.4757 M 1757.3429,1089.0767 H 1794.8783 M 1805.2359,1089.0767 H 1830.9288 M 1837.0372,1089.0767 H 1848.9989 M 1855.8847,1089.0767 H 1896.7136 M 1906.5415,1089.0767 H 1912.8408 M 1927.4491,1104.4587 H 1922.6222 M 1917.2664,1104.4587 H 1907.2926 M 1894.9609,1104.4587 H 1868.6072 M 1857.903,1104.4587 H 1851.4554 M 1842.8795,1104.4587 H 1819.6657 M 1808.5114,1104.4587 H 1773.4548 M 1765.5759,1104.4587 H 1757.2986 M 1749.2427,1104.4587 H 1739.1064 L 1739.195,1111.2989 M 1976.4465,816.02504 V 858.34116 M 1976.4465,869.48357 V 886.00939 M 1976.4465,892.64476 V 899.90611 M 1976.4465,911.29891 V 928.23161 M 1976.4465,934.74179 V 941.84664 M 1976.4465,953.11424 V 966.38498 M 1976.4465,978.06549 V 986.75647 M 1976.4465,997.70632 V 1010.1408 M 1976.4465,1020.7199 V 1025.834 1037.1831 M 1989.7925,1058.846 1975.2071,1044.2606 M 1927.4491,1121.1894 V 1104.4587 L 1941.0869,1090.8835 M 1948.0979,1083.8099 1956.0478,1075.86 M 1962.6206,1069.2872 1971.666,1060.1793 M 1978.9273,1052.9805 1981.0731,1050.8348 M 1961.3146,1038.5949 1951.4783,1048.4312 M 1935.5103,1064.3992 1928.0472,1071.8623 M 1912.8285,1071.8623 H 1928.0472 M 1912.8068,1041.6957 1912.8639,1121.1894 M 1961.3146,847.44914 V 863.59938 M 1961.3146,871.17371 V 880.25039 M 1961.3146,887.51174 V 905.10172 M 1961.3146,912.42567 V 921.87794 M 1961.3146,928.5759 V 949.23318 M 1961.3146,955.55556 V 964.00626 M 1961.3146,972.33177 V 991.5493 M 1961.3146,998.56025 V 1007.5743 M 1961.3146,1015.3991 V 1038.1567 1038.1567 M 1932.5815,852.60037 H 1961.3146 M 1976.4465,852.34998 2021.9092,852.60037 M 2021.9092,852.60037 V 1026.334 M 1700.4069,1111.2989 H 1739.195 V 1134.0267 H 1912.8639 V 1121.1894 H 1927.4491 L 2007.8298,1040.8087 V 1026.334 H 2021.9092 M 1961.3146,822.41277 V 832.17528 H 1931.3928 V 847.44914 H 1932.5815 V 852.60037 H 1928.7748 V 1025.7277 L 1912.8068,1041.6957 H 1738.6638 V 1043.995 H 1733.4407 V 1044.836 H 1717.2404 M 1961.3146,741.32234 H 1953.7836 M 1953.7836,754.4288 V 724.88263 M 1933.2454,780.80524 H 1920.0107 M 1901.0217,780.80524 H 1876.6197 M 1857.7152,780.80524 H 1842.6291 M 1933.2454,724.88263 V 754.4288 M 1933.2454,769.03119 V 816.02504 M 1910.5826,724.88263 V 754.4288 M 1910.5826,768.94266 V 816.02504 M 1888.4509,816.02504 V 769.03119 M 1888.4509,754.4288 V 724.88263 M 1867.5586,724.88263 V 754.4288 M 1867.5586,769.03119 V 816.02504 M 1988.6631,739.64033 V 769.03119 M 1976.4465,739.64033 H 1994.0448 M 2003.3093,739.64033 H 2021.9092 M 1976.4465,769.03119 H 1978.4826 2021.9092 M 1976.4465,816.02504 V 810.39124 M 1976.4465,798.81064 V 785.8529 M 1976.4465,775.52426 V 769.03119 M 1976.4465,760.50078 V 739.64033 M 1961.3146,769.03119 H 1948.0294 M 1936.9636,769.03119 H 1919.6123 M 1901.066,769.03119 H 1876.7605 M 1857.7152,769.03119 H 1842.6291 M 1961.3146,769.03119 V 806.5665 M 1961.3146,813.38305 V 822.41277 M 1842.6291,754.4288 H 1854.6479 M 1861.0955,754.4288 H 1871.4867 M 1879.374,754.4288 H 1899.0923 M 1906.4163,754.4288 H 1915.4304 M 1923.0673,754.4288 H 1946.5244 M 1953.7836,754.4288 H 1961.3146 V 717.1205 M 1777.5274,750.92333 1809.4523,782.8482 M 1818.8419,792.23788 1842.6291,816.02504 V 769.03119 M 1842.6291,754.4288 V 724.88263 M 1700.4069,958.56679 1676.46,934.61987 M 1667.0703,925.23019 1635.1454,893.30529 M 1842.6291,816.02504 H 1963.256 M 1974.0563,816.02504 H 2021.9092 V 724.88263 H 1978.3412 1975.0861 M 1963.6307,724.88263 H 1803.5681 L 1608.3285,920.12218 V 937.09907 L 1466.4163,937.14058 M 1372.8952,1053.1575 H 1374.9077 M 1438.5437,1065.8611 V 1052.8952 H 1436.7284 L 1433.5542,1056.0694 M 1430.0573,1059.5219 1427.37,1062.2535 H 1438.5437 M 1386.3537,1065.8611 V 1052.8952 H 1388.169 L 1391.1419,1055.9566 M 1395.1256,1059.8075 1397.5274,1062.2535 H 1386.3537 M 1314.1158,1056.8314 V 1052.5822 H 1317.7465 M 1331.7952,1171.562 H 1327.3239 M 1405.6964,1088.9515 H 1386.0407 C 1379.9061,1088.3255 1374.9905,1092.7364 1374.9905,1099.149 1374.9905,1104.2659 1381.9118,1109.1733 1385.7903,1108.3568 H 1406.1972 M 1283.8138,1108.531 H 1318.3392 M 1307.1848,1042.1283 V 1056.8314 H 1318.3392 M 1283.8138,1171.562 H 1318.3392 V 1164.82 M 1318.3392,1157.4335 V 1122.5039 M 1318.3392,1115.493 V 1100.5947 M 1318.3392,1093.2372 V 1064.8431 M 1318.3392,1046.6508 V 1042.1283 M 1311.4241,1042.1283 H 1283.8138 V 1079.2488 M 1283.8138,1084.507 V 1122.8795 M 1283.8138,1128.3881 V 1165.5712 M 1283.8138,1171.562 V 1207.8579 M 1416.2497,1086.0452 H 1331.7952 V 1171.562 H 1353.0416 L 1352.8968,1177.3725 M 1420.8531,1109.4162 H 1416.2497 V 1099.1471 H 1387.0359 M 1431.9719,1098.793 H 1466.7099 M 1466.7099,1088.1698 H 1431.9719 V 1088.1698 M 1431.9719,1093.9241 V 1103.6177 M 1428.4664,1109.4162 V 1109.4162 M 1419.6137,961.25196 V 953.91914 M 1384.5571,947.60564 V 961.25196 M 1376.2754,961.25196 H 1390.1343 M 1398.2788,961.25196 H 1424.1286 M 1434.3091,961.25196 H 1450.2439 V 1030.2734 M 1450.2439,1037.931 V 1065.8611 1065.8611 M 1438.5437,1065.8611 H 1386.3537 M 1375.2739,1065.8611 H 1372.8952 M 1419.3427,947.60564 H 1376.2754 V 961.25196 H 1372.8952 V 1076.4319 H 1332.0814 V 1042.1283 H 1311.4241 M 1311.4241,1036.4945 H 1276.2441 V 1214.1471 H 1283.3803 V 1216.5258 H 1352.8968 V 1177.3725 L 1420.8531,1109.4162 H 1466.7099 V 958.56679 H 1656.334 V 994.42008 M 1656.334,999.64315 V 1032.0439 M 1656.334,1043.2868 V 1075.3335 M 1656.334,1086.9305 V 1094.4601 M 1656.334,1105.4773 V 1118.1221 M 1656.334,1128.7637 V 1133.5211 H 1607.1362 V 958.56679 M 1419.3427,947.60564 H 1450.2439 M 1450.2439,937.05481 V 921.85231 L 1418.6108,892.16899 1399.8122,910.67293 1278.9984,789.85916 1311.4867,757.37089 1321.1268,767.01096 1354.7418,733.39593 1465.5476,844.20176 1428.2008,881.54859 M 1288.2401,790.80875 1303.3339,775.71495 M 1433.4898,860.0939 1448.2003,845.38341 M 1389.2332,900.09391 1401.4398,887.88732 M 1412.0188,898.46636 1408.7295,895.17709 M 1404.7016,891.14912 1395.2292,881.67677 M 1397.9247,863.13503 1375.0995,885.96022 M 1390.2228,855.43321 1367.3977,878.2584 M 1417.2563,795.91046 1383.6413,829.52547 M 1374.8192,840.02957 1351.994,862.85476 M 1351.1826,816.39295 1328.3574,839.21814 M 1385.9621,764.61628 1352.3471,798.23129 M 1305.1191,815.97989 1327.9,793.11042 M 1337.5605,783.44464 1371.2224,749.87658 M 1311.4637,776.67406 1313.9989,779.08406 M 1319.5075,784.90566 1329.5673,794.8769 M 1334.4499,799.82213 1344.0094,809.29246 M 1348.3912,813.9873 1352.5779,818.19127 M 1357.8361,823.38689 1367.299,832.80874 M 1372.4336,837.94329 1375.4025,840.81796 M 1380.8912,846.26235 1390.2228,855.43321 M 1394.0298,859.37174 1401.7854,867.01979 M 1405.8478,871.05817 V 871.05817 M 1311.4637,776.67406 1288.6385,799.49926 M 1405.8478,871.05817 1383.0226,893.88335 M 1321.1268,767.01096 1325.7903,771.67448 M 1331.7997,777.62127 1341.3772,787.26133 M 1346.5728,792.45695 1357.2457,803.12988 M 1364.6949,810.57902 1403.0986,848.98278 M 1410.047,855.93113 1415.5109,861.39507 1449.1259,827.78006 M 1689.3542,448.67979 V 452.99097 H 1658.0859 M 1701.35,473.25916 V 459.23211 M 1669.0819,463.48139 H 1688.1593 V 473.30203 M 1724.6322,473.30203 1700.5974,473.25777 M 1690.2398,473.30203 H 1684.8839 1658.0619 M 1658.0108,516.6823 H 1681.252 L 1724.6322,473.30203 V 448.51447 M 1546.6057,365.7922 V 383.29741 M 1528.9441,365.7922 V 383.30688 M 1537.7778,453.58373 V 435.30517 M 1537.7778,425.7277 V 405.19562 M 1458.6539,267.35055 H 1479.6348 M 1547.7118,407.13416 V 421.65253 M 1537.7778,407.04563 H 1527.2621 V 422.00664 M 1506.1928,365.7922 V 383.32048 L 1532.6196,383.30188 M 1541.6923,383.30188 1568.4302,383.28328 1568.3385,365.7922 M 1459.2801,567.29265 H 1480.4695 M 1593.4801,567.29265 H 1613.8412 M 1495.9237,321.26329 H 1447.3812 M 1495.9237,363.49051 H 1447.3615 M 1495.9237,406.16037 H 1447.3415 M 1495.9237,448.47611 H 1447.3218 M 1495.9237,490.88039 H 1447.302 M 1495.9237,533.81582 H 1447.282 M 1447.401,278.77077 H 1495.9237 V 280.65624 M 1495.9237,285.97705 V 313.55243 M 1495.9237,319.24883 V 323.56498 M 1495.9237,328.52248 V 357.69201 M 1495.9237,361.4544 V 365.88073 M 1495.9237,371.81202 V 399.29955 M 1495.9237,404.03573 V 408.63911 M 1495.9237,413.68513 V 442.19072 M 1495.9237,446.52853 V 450.51223 M 1495.9237,456.04514 V 484.50647 M 1495.9237,488.53443 V 493.31487 M 1495.9237,498.58221 V 527.13206 M 1495.9237,531.64692 V 547.8473 M 1495.9237,556.12455 V 556.12455 H 1447.2716 M 1581.0955,468.85759 H 1627.0423 M 1609.1393,532.95775 V 546.35368 H 1610.9859 M 1615.3991,546.35368 H 1621.2833 V 532.95775 M 1581.0955,532.95775 H 1584.3819 M 1590.0783,532.95775 H 1627.0423 M 1627.0423,408.6385 H 1581.0955 V 415.90299 M 1581.0955,423.66013 V 457.19599 M 1581.0955,465.65029 V 472.28979 M 1581.0955,479.90308 V 522.57294 M 1581.0955,530.54034 V 546.23169 M 1581.0955,551.58755 V 555.49296 H 1627.0423 M 1626.7661,384.91396 H 1580.4695 L 1580.558,367.51847 M 1580.4695,360.83471 V 360.83471 M 1657.9276,395.62569 H 1689.1774 M 1657.9276,408.48576 V 392.3502 M 1809.2196,305.47731 V 349.76888 M 1734.0604,305.47731 V 349.76888 M 1723.1716,392.3502 H 1710.4851 M 1704.8513,392.3502 H 1700.3444 M 1723.1716,361.25196 V 369.01409 M 1723.1716,372.95775 V 398.99844 M 1723.1716,403.38028 V 408.16311 M 1786.8223,391.9961 H 1744.2421 M 1744.2421,408.05891 V 401.56495 M 1744.2421,396.36933 V 373.70892 M 1744.2421,369.01409 V 361.25196 M 1765.753,361.25196 V 367.73979 M 1786.8223,361.25196 V 369.07668 M 1786.8223,373.33333 V 396.61972 M 1786.8223,401.81534 V 407.84834 M 1700.3444,382.9734 H 1693.0203 M 1700.3444,408.276 V 361.25196 M 1697.8403,361.25196 H 1708.0755 M 1713.2085,361.25196 H 1730.1721 M 1735.7747,361.25196 H 1750.3051 M 1756.7896,361.25196 H 1767.9219 M 1774.2073,361.25196 H 1793.1142 M 1801.6588,361.25196 H 1813.5956 M 1822.641,361.25196 H 1829.8463 L 1829.6595,395.11737 M 1669.2958,384.91393 V 361.28326 M 1658.5252,361.25196 H 1663.662 M 1674.9922,361.25196 H 1681.6275 V 384.91393 H 1669.2958 1658.5916 M 1829.7578,349.76888 H 1825.6651 M 1816.5258,349.76888 H 1805.5712 M 1796.3067,349.76888 H 1745.8529 M 1736.964,349.76888 H 1730.7407 M 1721.888,349.85741 1693.4267,349.76888 M 1683.2904,349.76888 H 1672.3573 M 1658.6357,349.76888 1661.688,349.78944 M 1505.8219,428.41941 H 1510.2347 V 436.80751 H 1526.8858 V 470.73553 M 1548.4194,470.73553 V 436.55712 H 1564.5696 V 428.29421 H 1568.8788 M 1505.8529,403.38028 V 475.21127 545.80288 C 1505.8529,545.80288 1512.8639,546.22848 1513.302,552.92645 H 1561.8153 C 1561.8153,552.92645 1562.0531,546.47514 1568.8697,545.94398 V 545.94398 403.25509 M 1447.4111,257.08145 H 1506.1928 V 365.7922 H 1568.3385 V 360.83471 H 1626.7661 V 384.91396 H 1658.5472 V 361.25196 305.47731 H 1829.8592 V 350.04695 H 1848.3881 V 395.11737 H 1829.6595 L 1829.571,407.63694 1627.0423,408.6385 V 577.90297 H 1580.4695 V 565.88419 H 1496.0876 V 578.15337 H 1447.2613 Z M 1657.9276,587.16745 H 1725.1956 L 1791.6745,520.68858 V 448.20031 L 1658.0908,448.82629 Z M 1419.6137,947.60564 V 936.96628 L 1450.2439,937.05481" /></g></g></svg>
